<?xml version="1.0" encoding="utf-8"?>
<!-- Generator: Adobe Illustrator 24.1.1, SVG Export Plug-In . SVG Version: 6.00 Build 0)  -->
<svg version="1.0" id="Слой_1" xmlns="http://www.w3.org/2000/svg" xmlns:xlink="http://www.w3.org/1999/xlink" x="0px" y="0px"
	 viewBox="0 0 1920 1080" style="enable-background:new 0 0 1920 1080;" xml:space="preserve">
<style type="text/css">
	.st0{fill:#FFFFFF;}
	.st1{opacity:0.5;clip-path:url(#SVGID_2_);}
	.st2{fill:none;stroke:#000000;stroke-miterlimit:10;}
	.st3{fill:none;stroke:#000000;stroke-width:6;stroke-miterlimit:10;}
	.st4{fill:none;stroke:#000000;stroke-width:1;stroke-miterlimit:9.9998;}
	.st5{fill:none;stroke:#000000;stroke-miterlimit:10;stroke-dasharray:12.1069,12.1069;}
	.st6{fill:none;stroke:#000000;stroke-miterlimit:10;stroke-dasharray:12;}
	.st7{fill:none;stroke:#000000;stroke-width:1;stroke-miterlimit:10.0008;}
	.st8{clip-path:url(#SVGID_4_);fill:#39B54A;}
	.st9{clip-path:url(#SVGID_6_);fill:#061937;}
	.st10{clip-path:url(#SVGID_8_);fill:#061937;}
	.st11{clip-path:url(#SVGID_10_);fill:#061937;}
	.st12{clip-path:url(#SVGID_12_);fill:#061937;}
	.st13{clip-path:url(#SVGID_14_);fill:#061937;}
	.st14{clip-path:url(#SVGID_16_);fill:#061937;}
	.st15{clip-path:url(#SVGID_18_);fill:#061937;}
	.st16{clip-path:url(#SVGID_20_);fill:#E6E6E6;}
	.st17{clip-path:url(#SVGID_22_);fill:#E6E6E6;}
	.st18{clip-path:url(#SVGID_24_);fill:#E6E6E6;}
	.st19{clip-path:url(#SVGID_26_);fill:#E6E6E6;}
	.st20{clip-path:url(#SVGID_28_);fill:#061937;}
	.st21{clip-path:url(#SVGID_30_);fill:#061937;}
	.st22{clip-path:url(#SVGID_32_);fill:#061937;}
	.st23{clip-path:url(#SVGID_34_);fill:#061937;}
	.st24{clip-path:url(#SVGID_36_);fill:#061937;}
	.st25{clip-path:url(#SVGID_38_);fill:#061937;}
	.st26{clip-path:url(#SVGID_40_);fill:#061937;}
	.st27{clip-path:url(#SVGID_42_);fill:#061937;}
	.st28{clip-path:url(#SVGID_44_);fill:#061937;}
	.st29{clip-path:url(#SVGID_46_);fill:#061937;}
	.st30{clip-path:url(#SVGID_48_);fill:#061937;}
	.st31{clip-path:url(#SVGID_50_);fill:#061937;}
	.st32{clip-path:url(#SVGID_52_);fill:#061937;}
	.st33{clip-path:url(#SVGID_54_);fill:#061937;}
	.st34{clip-path:url(#SVGID_56_);fill:#061937;}
	.st35{clip-path:url(#SVGID_58_);fill:#061937;}
	.st36{clip-path:url(#SVGID_60_);fill:#061937;}
	.st37{clip-path:url(#SVGID_62_);fill:#061937;}
	.st38{clip-path:url(#SVGID_64_);fill:#061937;}
	.st39{clip-path:url(#SVGID_66_);fill:#061937;}
	.st40{clip-path:url(#SVGID_68_);fill:#061937;}
	.st41{clip-path:url(#SVGID_70_);fill:#061937;}
	.st42{clip-path:url(#SVGID_72_);fill:#061937;}
	.st43{clip-path:url(#SVGID_74_);fill:#061937;}
	.st44{clip-path:url(#SVGID_76_);fill:#061937;}
	.st45{clip-path:url(#SVGID_78_);fill:#061937;}
	.st46{clip-path:url(#SVGID_80_);fill:#061937;}
	.st47{clip-path:url(#SVGID_82_);fill:#061937;}
	.st48{clip-path:url(#SVGID_84_);fill:#061937;}
	.st49{clip-path:url(#SVGID_86_);fill:#061937;}
	.st50{clip-path:url(#SVGID_88_);fill:#061937;}
	.st51{clip-path:url(#SVGID_90_);fill:#061937;}
	.st52{clip-path:url(#SVGID_92_);fill:#061937;}
	.st53{clip-path:url(#SVGID_94_);fill:#061937;}
	.st54{clip-path:url(#SVGID_96_);fill:#061937;}
	.st55{clip-path:url(#SVGID_98_);fill:#061937;}
	.st56{clip-path:url(#SVGID_100_);fill:#061937;}
	.st57{clip-path:url(#SVGID_102_);}
	.st58{fill:#808080;}
	.st59{font-family:'OpenSans-Bold';}
	.st60{font-size:40.9665px;}
	.st61{clip-path:url(#SVGID_104_);fill:#FFFFFF;}
	.st62{clip-path:url(#SVGID_106_);fill:#061937;}
	.st63{clip-path:url(#SVGID_108_);}
	.st64{font-size:22.2566px;}
	.st65{clip-path:url(#SVGID_110_);fill:#E6E6E6;}
	.st66{clip-path:url(#SVGID_112_);}
	.st67{clip-path:url(#SVGID_114_);fill:#39B54A;}
	.st68{clip-path:url(#SVGID_116_);}
	.st69{clip-path:url(#SVGID_118_);fill:none;}
	.st70{fill:#0071E3;}
	.st71{font-size:20.5316px;}
	.st72{fill:#FF8702;}
	.st73{fill:#8ECC17;}
	.st74{font-size:23px;}
	.st75{fill:#061937;}
	.st76{font-size:22.9989px;}
	.st77{font-size:23.0008px;}
</style>
<g id="Слой_2_1_">
	<rect class="st0" width="1920" height="1080"/>
	<g>
		<g>
			<g>
				<defs>
					<rect id="SVGID_1_" width="1920" height="1080"/>
				</defs>
				<clipPath id="SVGID_2_">
					<use xlink:href="#SVGID_1_"  style="overflow:visible;"/>
				</clipPath>
				<g class="st1">
					<path class="st2" d="M1515.97-352.67l45.22-30.15c117.65,199.11,207.4,404.84,272.98,616.3l-91.87,21.3
						c-13.91,3.23-23.82,15.52-24.02,29.8l-6.36,96.27"/>
					<path class="st2" d="M1839.19,405.98h26.8c14.51,99.93,14.51,199.85,0,299.78h-26.8"/>
					<path class="st2" d="M1713.58,732.55l5.56,105.66c0.66,12.6,10.07,23,22.53,24.93l97.51,15.11
						c-71.24,201.19-149.61,390.79-237.81,564.38"/>
					<path class="st2" d="M1476.74,47.21c0,0-39.49-24.74-61.26-18.04s-105.51,185.89-110.53,197.62s3.35,41.87,3.35,41.87
						c20.1,25.12,108.86-5.02,137.33-53.59S1454,77.73,1487.5,24.14s95.46-132.3,139-120.58s45.22,23.45,45.22,23.45"/>
					<circle class="st2" cx="1325.05" cy="251.9" r="8.37"/>
					<circle class="st2" cx="1363.57" cy="201.66" r="25.12"/>
					<circle class="st2" cx="1407.11" cy="116.25" r="26.8"/>
					<circle class="st2" cx="1420.51" cy="50.94" r="10.05"/>
					<path class="st2" d="M1531.04-17.73l20.1,56.94c95.46-21.77,130.63,107.18,38.52,137.33l8.37,61.96
						c0,0,140.68-46.89,98.81-174.17c-41.87-127.28-164.12-82.06-164.12-82.06"/>
					<path class="st2" d="M1476.74,1069.55c0,0-39.49,24.74-61.26,18.04s-105.51-185.89-110.53-197.62
						c-5.02-11.72,3.35-41.87,3.35-41.87c20.1-25.12,108.86,5.02,137.33,53.59s8.37,137.33,41.87,190.92"/>
					<circle class="st2" cx="1325.05" cy="864.85" r="8.37"/>
					<circle class="st2" cx="1363.57" cy="915.1" r="25.12"/>
					<circle class="st2" cx="1407.11" cy="1000.51" r="26.8"/>
					<circle class="st2" cx="1420.51" cy="1065.82" r="10.05"/>
					<path class="st2" d="M462.56-361.05c41.61,45.6,86.97,88.35,137.33,127.28"/>
					<path class="st2" d="M640.08-203.62C692-159.12,743.92-120.6,795.83-88.07"/>
					<path class="st2" d="M839.38-61.27c49.88,34.46,102.96,65.11,159.1,92.11"/>
					<path class="st2" d="M1050.39,54.29c25.76,15.53,53.22,28.79,82.06,40.19c17.89-25.91,34.53-50.01,48.57-70.34"/>
					<polyline class="st2" points="1112.95,86.39 1125.75,59.31 1148.38,71.41 					"/>
					<polyline class="st2" points="1140.8,82.39 1246.33,136.35 1281.5,87.78 					"/>
					<polyline class="st3" points="1428.88,-332.58 1241.31,-59.59 1333.42,10.74 1276.48,89.46 1182.7,19.12 1242.15,-58.76 					
						"/>
					<polyline class="st3" points="1329.74,-188.29 1419.67,-120.72 1543.6,-303.27 					"/>
					<polyline class="st2" points="1335.93,-18.56 1347.66,-6.84 1334.26,9.91 					"/>
					<polyline class="st2" points="1356.87,-44.52 1368.59,-36.15 1390.36,-69.64 1378.64,-78.02 					"/>
					<polyline class="st2" points="1398.73,-106.49 1410.46,-99.79 1420.51,-118.21 					"/>
					<line class="st2" x1="1436.67" y1="-145.76" x2="1552.51" y2="-59.93"/>
					<polyline class="st2" points="1398.73,-282.33 1433.9,-253.86 1398.73,-211.99 1364.62,-239.05 					"/>
					<line class="st2" x1="1393.71" y1="-278.98" x2="1428.88" y2="-248.84"/>
					<line class="st2" x1="1389.52" y1="-273.12" x2="1425.53" y2="-242.14"/>
					<line class="st2" x1="1383.66" y1="-268.94" x2="1420.51" y2="-237.12"/>
					<line class="st2" x1="1378.64" y1="-263.91" x2="1415.48" y2="-232.09"/>
					<line class="st2" x1="1373.61" y1="-258.89" x2="1410.46" y2="-227.07"/>
					<line class="st2" x1="1364.4" y1="-249.68" x2="1402.08" y2="-217.02"/>
					<line class="st2" x1="1368.59" y1="-253.86" x2="1407.11" y2="-220.37"/>
					<polyline class="st2" points="1480.33,-218.19 1444.38,-245.67 1411.96,-201.64 1450.65,-171.8 					"/>
					<line class="st2" x1="1478.25" y1="-212.52" x2="1440.68" y2="-239.61"/>
					<line class="st2" x1="1473.54" y1="-207.07" x2="1434.95" y2="-234.77"/>
					<line class="st2" x1="1470.85" y1="-200.39" x2="1431.25" y2="-228.71"/>
					<line class="st2" x1="1467.15" y1="-194.32" x2="1427.55" y2="-222.64"/>
					<line class="st2" x1="1463.45" y1="-188.26" x2="1423.85" y2="-216.58"/>
					<line class="st2" x1="1456.67" y1="-177.14" x2="1416.06" y2="-206.07"/>
					<line class="st2" x1="1459.75" y1="-182.19" x2="1418.13" y2="-211.75"/>
					<line class="st2" x1="1465.72" y1="-312.48" x2="1485.82" y2="-295.73"/>
					<polyline class="st2" points="1476.47,-303.53 1445.93,-255.41 1435.88,-255.28 					"/>
					<line class="st2" x1="1445.63" y1="-247.16" x2="1445.63" y2="-255.54"/>
					<line class="st2" x1="1400.41" y1="-208.65" x2="1408.78" y2="-201.95"/>
					<polyline class="st2" points="511.38,-310.65 531.23,-332.58 563.05,-300.76 543.63,-280.6 					"/>
					<polyline class="st2" points="697.55,-157.03 714.19,-178.29 749.29,-150.21 733.1,-130.68 					"/>
					<polyline class="st2" points="894.97,-25.23 913.66,-48.02 947.91,-23.86 933.76,-2.67 					"/>
					<path class="st2" d="M463.54,1476.07c46.6-48.93,92.17-92.18,135.97-125.71"/>
					<path class="st2" d="M646.55,1313.88c49.8-40.77,99.43-77.17,148.8-107.18"/>
					<path class="st2" d="M840.68,1175.05c54.67-33.81,108.66-64.87,161.63-91.79"/>
					<polyline class="st2" points="1048.49,1059.89 1131.44,1020.55 1146.12,1044.14 1125.38,1053.97 1114.78,1028.45 					"/>
					<polyline class="st2" points="901.81,1138.29 914.22,1159.94 949.57,1138.29 938.89,1117.12 					"/>
					<polyline class="st2" points="698.66,1272.85 715.82,1293.92 749.17,1267.13 734.82,1246.46 					"/>
					<polyline class="st2" points="546.59,1394.62 563.03,1417.07 532.81,1443.47 513.01,1426.05 					"/>
					<path class="st2" d="M1138.64,1029.81c34.89-23.97,72.06-41.55,112.03-51.31l25.87,48.8"/>
					<line class="st2" x1="1146.12" y1="1044.14" x2="1185.03" y2="1092.62"/>
					<polyline class="st3" points="1329.98,1106.35 1273.54,1027.3 1188.88,1092.62 1429.18,1446.71 					"/>
					<line class="st3" x1="1420.63" y1="1240.62" x2="1541.21" y2="1416.78"/>
					<line class="st2" x1="1245.75" y1="1170.92" x2="1325.71" y2="1104.64"/>
					<line class="st2" x1="1289.57" y1="1235.7" x2="1369.32" y2="1176.9"/>
					
						<rect x="1367.95" y="1152.78" transform="matrix(0.8307 -0.5567 0.5567 0.8307 -420.3253 963.9481)" class="st4" width="13.68" height="40.62"/>
					<path class="st2" d="M1333.83,1300.48c28.58-23.11,57.32-40.66,83.24-56.87l-14.83-20.52"/>
					<line class="st2" x1="1366.61" y1="1347.8" x2="1448.42" y2="1288.79"/>
					<line class="st2" x1="1399.11" y1="1399.92" x2="1485.25" y2="1337.79"/>
					<line class="st2" x1="1461.54" y1="1427.33" x2="1483.49" y2="1411.37"/>
					<line class="st2" x1="1401.78" y1="1322.43" x2="1436.31" y2="1371.89"/>
					<line class="st2" x1="1409.16" y1="1317.33" x2="1443.68" y2="1366.78"/>
					<line class="st2" x1="1369.75" y1="1353.21" x2="1405.18" y2="1327.3"/>
					<line class="st2" x1="1373.72" y1="1358.78" x2="1409.16" y2="1332.87"/>
					<line class="st2" x1="1377.12" y1="1365.3" x2="1412.55" y2="1339.39"/>
					<line class="st2" x1="1381.39" y1="1371.16" x2="1416.82" y2="1345.25"/>
					<line class="st2" x1="1386.03" y1="1377.35" x2="1421.46" y2="1351.43"/>
					<line class="st2" x1="1390.99" y1="1383.53" x2="1426.42" y2="1357.62"/>
					<line class="st2" x1="1395.49" y1="1391.21" x2="1430.92" y2="1365.3"/>
					<line class="st2" x1="1413.1" y1="1322.66" x2="1452.33" y2="1293.96"/>
					<line class="st2" x1="1417.07" y1="1328.22" x2="1456.01" y2="1299.75"/>
					<line class="st2" x1="1420.47" y1="1334.74" x2="1460.09" y2="1305.77"/>
					<line class="st2" x1="1424.74" y1="1340.6" x2="1464.25" y2="1311.71"/>
					<line class="st2" x1="1429.38" y1="1346.79" x2="1468.34" y2="1318.29"/>
					<line class="st2" x1="1434.34" y1="1352.97" x2="1473" y2="1324.7"/>
					<line class="st2" x1="1438.84" y1="1360.66" x2="1479.04" y2="1331.25"/>
					<path class="st2" d="M1509.14,1230.78c-39.79-58.26-76.73-112.36-105.4-154.34"/>
					<line class="st2" x1="1426.42" y1="1243.61" x2="1485.25" y2="1198.28"/>
					<polyline class="st2" points="1473.8,1318.29 1535.65,1273.54 1521.11,1253.87 					"/>
					<polyline class="st2" points="1534.37,1446.71 1667.35,1226.51 1662.65,1218.38 1681.03,1179.9 					"/>
					<polyline class="st2" points="1509.14,1443.47 1613.9,1293.96 1627.51,1292.48 					"/>
					<path class="st2" d="M1801.55,872.42c-51.44,193.65-127.21,324.37-154.22,333.03c-27.02,8.66-56.09,0.86-56.09,0.86
						l-39.34,24.48"/>
					<g>
						<g>
							<path class="st2" d="M352.08,1568.15c0,0-0.89-1.92-2.5-5.45"/>
							<path class="st5" d="M344.62,1551.66c-21.04-47.33-79.15-184.05-76.35-244.34c3.42-73.55,174.46-277.93,331.81-365.16
								s309.57-86.55,344.64-68.93c29.56,14.86,117.73,114.18,144.67,144.98"/>
							<path class="st2" d="M1093.37,1022.77c2.53,2.91,3.93,4.53,3.93,4.53"/>
						</g>
					</g>
					<path class="st6" d="M290.08-382.82c0,0-39.77,72-39.77,109.69S365.77,30.11,578.71,127.6s347.95,110.45,367.2,101.06
						c19.24-9.39,157.46-122.17,157.46-122.17"/>
					<path class="st2" d="M1013.14,182.33l90.22,44.47c-4.22,27.78-13.89,51.28-29.5,70.12L952.42,231.2"/>
					<path class="st2" d="M1068.71,294.14c14.01-24.27,26.3-48.22,28.56-70.34"/>
					<path class="st2" d="M1059.62,289.22c14.9-22.54,26.33-45.42,30.36-69.01"/>
					<path class="st2" d="M1050.21,284.13c15.09-21.76,26.53-44.14,32.78-67.37"/>
					<path class="st2" d="M1040.09,278.65c15.19-21.54,26.85-43.59,33.94-66.31"/>
					<path class="st2" d="M1029.26,272.79c15.63-21.66,28.5-43.38,35.08-65.22"/>
					<path class="st2" d="M1017.72,266.55c16.05-21.22,29.98-42.44,37.1-63.67"/>
					<path class="st2" d="M1005.79,260.09c16.39-21.52,30.25-42.62,37.88-62.71"/>
					<path class="st2" d="M993.35,253.36c16.97-20.05,31.78-40.27,40.11-61.01"/>
					<path class="st2" d="M983.34,247.94c17.48-19.93,32.57-39.8,42.15-59.52"/>
					<path class="st2" d="M971.66,241.62c18.08-18.84,33.55-37.96,45.08-57.51"/>
					<path class="st2" d="M1014.51,929.72l90.22-44.47c-4.22-27.78-13.89-51.28-29.5-70.12l-121.44,65.72"/>
					<path class="st2" d="M1070.08,817.91c14.01,24.27,26.3,48.22,28.56,70.34"/>
					<path class="st2" d="M1060.99,822.83c14.9,22.54,26.33,45.42,30.36,69.01"/>
					<path class="st2" d="M1051.57,827.92c15.09,21.77,26.53,44.14,32.78,67.37"/>
					<path class="st2" d="M1041.46,833.39c15.19,21.54,26.85,43.59,33.94,66.31"/>
					<path class="st2" d="M1030.63,839.26c15.63,21.66,28.5,43.38,35.08,65.22"/>
					<path class="st2" d="M1019.09,845.5c16.05,21.22,29.98,42.44,37.1,63.67"/>
					<path class="st2" d="M1007.16,851.96c16.39,21.52,30.25,42.62,37.88,62.71"/>
					<path class="st2" d="M994.71,858.69c16.97,20.05,31.78,40.27,40.11,61.01"/>
					<path class="st2" d="M984.71,864.11c17.48,19.93,32.57,39.8,42.15,59.52"/>
					<path class="st2" d="M973.03,870.43c18.08,18.84,33.55,37.96,45.08,57.51"/>
					<path class="st2" d="M-180.94-382.82c409.33,633.35,363.54,1239.83,33.6,1829.53"/>
					<path class="st3" d="M-211.48-382.82c408.99,595.03,389.69,1216.48,30.54,1858.89"/>
					<polyline class="st2" points="340.68,390.85 344.1,438.17 110.62,454.66 					"/>
					<line class="st3" x1="75.94" y1="208.9" x2="150.26" y2="196.44"/>
					<line class="st3" x1="105.57" y1="390.85" x2="215.26" y2="372.61"/>
					<line class="st3" x1="105.57" y1="203.93" x2="135.37" y2="385.9"/>
					<path class="st3" d="M332.13,352.65l-37.06,6.84c-3.84-68.03-13.66-130.84-33.07-185.29l41.62-6.84
						C324.33,226.13,332.88,288.15,332.13,352.65z"/>
					<path class="st3" d="M183.04,185.32c13.15,67.79,24.1,134.13,28.16,185.79"/>
					<line class="st3" x1="202.14" y1="281.67" x2="285.32" y2="267.34"/>
					<path class="st2" d="M306.48,167.37l56.53-3.46l53.68,221.9c4.73,19.57-8.85,38.83-28.87,40.93l-43.71,4.6"/>
					<path class="st2" d="M-30.01-106.61l254.39-82.34l37.65,101.52c4.04,10.9-1.72,22.99-12.74,26.72L19.8,16.87"/>
					<path class="st2" d="M-36.5,1223.01l254.39,82.34l37.65-101.52c4.04-10.9-1.72-22.99-12.74-26.72l-229.5-77.59"/>
					<line class="st2" x1="82.06" y1="-4.18" x2="95.53" y2="24.84"/>
					<line class="st2" x1="114.71" y1="76.72" x2="118.6" y2="93.82"/>
					<path class="st2" d="M127.46,140.57c2.78,19.65,5.41,38.22,7.92,55.87"/>
					
						<rect x="188.52" y="177.21" transform="matrix(0.9902 -0.1396 0.1396 0.9902 -23.8778 29.1865)" class="st4" width="15.18" height="15.18"/>
					
						<rect x="242.72" y="168.36" transform="matrix(0.9902 -0.1396 0.1396 0.9902 -22.1116 36.6662)" class="st4" width="15.18" height="15.18"/>
					
						<rect x="215.59" y="361.55" transform="matrix(0.9922 -0.125 0.125 0.9922 -44.3908 30.7915)" class="st7" width="15.18" height="15.18"/>
					
						<rect x="275.49" y="351.71" transform="matrix(0.9922 -0.125 0.125 0.9922 -42.6909 38.2018)" class="st7" width="15.18" height="15.18"/>
					<polyline class="st2" points="336.93,723.58 340.35,676.26 106.87,659.78 					"/>
					<line class="st3" x1="69.71" y1="905.12" x2="146.51" y2="917.99"/>
					<line class="st3" x1="101.82" y1="723.58" x2="211.5" y2="741.83"/>
					<line class="st3" x1="101.82" y1="910.5" x2="131.62" y2="728.54"/>
					<path class="st3" d="M328.38,761.78l-37.06-6.84c-3.84,68.03-13.66,130.84-33.07,185.29l41.62,6.84
						C320.58,888.3,329.13,826.28,328.38,761.78z"/>
					<path class="st3" d="M179.29,929.11c13.15-67.79,24.1-134.13,28.16-185.79"/>
					<line class="st3" x1="198.39" y1="832.76" x2="281.57" y2="847.1"/>
					<path class="st2" d="M302.72,947.07l56.53,3.46l53.68-221.9c4.73-19.57-8.85-38.83-28.87-40.93l-43.71-4.6"/>
					<line class="st2" x1="78.31" y1="1118.62" x2="91.78" y2="1089.6"/>
					<line class="st2" x1="110.96" y1="1037.72" x2="114.85" y2="1020.61"/>
					<path class="st2" d="M123.71,973.86c2.78-19.65,5.41-38.22,7.92-55.87"/>
					
						<rect x="184.81" y="922.04" transform="matrix(0.1396 -0.9902 0.9902 0.1396 -754.9846 990.3731)" class="st4" width="15.18" height="15.18"/>
					
						<rect x="239.02" y="930.89" transform="matrix(0.1396 -0.9902 0.9902 0.1396 -717.1115 1051.6578)" class="st4" width="15.18" height="15.18"/>
					
						<rect x="211.85" y="737.75" transform="matrix(0.125 -0.9922 0.9922 0.125 -547.4832 869.889)" class="st7" width="15.18" height="15.18"/>
					
						<rect x="271.74" y="747.59" transform="matrix(0.125 -0.9922 0.9922 0.125 -504.8402 937.9214)" class="st7" width="15.18" height="15.18"/>
				</g>
			</g>
		</g>
		<g>
			<g>
				<defs>
					<rect id="SVGID_3_" width="1920" height="1080"/>
				</defs>
				<clipPath id="SVGID_4_">
					<use xlink:href="#SVGID_3_"  style="overflow:visible;"/>
				</clipPath>
				<ellipse class="st8" cx="1211.15" cy="539.12" rx="30.32" ry="63.02"/>
			</g>
		</g>
		<g>
			<g>
				<defs>
					<rect id="SVGID_5_" width="1920" height="1080"/>
				</defs>
				<clipPath id="SVGID_6_">
					<use xlink:href="#SVGID_5_"  style="overflow:visible;"/>
				</clipPath>
				<rect x="552.56" y="234.5" class="st9" width="55.7" height="14.98"/>
			</g>
		</g>
		<g>
			<g>
				<defs>
					<rect id="SVGID_7_" width="1920" height="1080"/>
				</defs>
				<clipPath id="SVGID_8_">
					<use xlink:href="#SVGID_7_"  style="overflow:visible;"/>
				</clipPath>
				<rect x="621.46" y="234.5" class="st10" width="55.7" height="14.98"/>
			</g>
		</g>
		<g>
			<g>
				<defs>
					<rect id="SVGID_9_" width="1920" height="1080"/>
				</defs>
				<clipPath id="SVGID_10_">
					<use xlink:href="#SVGID_9_"  style="overflow:visible;"/>
				</clipPath>
				<rect x="695.33" y="234.5" class="st11" width="55.7" height="14.98"/>
			</g>
		</g>
		<g>
			<g>
				<defs>
					
						<rect id="SVGID_11_" x="174.74" y="-338.91" transform="matrix(0.3193 -0.9476 0.9476 0.3193 581.8029 1212.1062)" width="1919.87" height="1079.92"/>
				</defs>
				<clipPath id="SVGID_12_">
					<use xlink:href="#SVGID_11_"  style="overflow:visible;"/>
				</clipPath>
				
					<rect x="803.88" y="221.06" transform="matrix(0.1618 -0.9868 0.9868 0.1618 434.4599 1009.3189)" class="st12" width="14.98" height="55.7"/>
			</g>
		</g>
		<g>
			<g>
				<defs>
					
						<rect id="SVGID_13_" x="175.97" y="-132.3" transform="matrix(0.6829 -0.7305 0.7305 0.6829 62.3612 959.1214)" width="1920.1" height="1080.06"/>
				</defs>
				<clipPath id="SVGID_14_">
					<use xlink:href="#SVGID_13_"  style="overflow:visible;"/>
				</clipPath>
				
					<rect x="888.17" y="243.28" transform="matrix(0.3671 -0.9302 0.9302 0.3671 314.6674 1004.7281)" class="st13" width="14.98" height="55.7"/>
			</g>
		</g>
		<g>
			<g>
				<defs>
					
						<rect id="SVGID_15_" x="177.81" y="-77.47" transform="matrix(0.6829 -0.7305 0.7305 0.6829 22.8869 977.8514)" width="1920.1" height="1080.06"/>
				</defs>
				<clipPath id="SVGID_16_">
					<use xlink:href="#SVGID_15_"  style="overflow:visible;"/>
				</clipPath>
				
					<rect x="952.26" y="268.58" transform="matrix(0.3671 -0.9302 0.9302 0.3671 331.6995 1080.3555)" class="st14" width="14.98" height="55.7"/>
			</g>
		</g>
		<g>
			<g>
				<defs>
					
						<rect id="SVGID_17_" x="179.79" y="-18.68" transform="matrix(0.6829 -0.7305 0.7305 0.6829 -19.4303 997.9409)" width="1920.1" height="1080.06"/>
				</defs>
				<clipPath id="SVGID_18_">
					<use xlink:href="#SVGID_17_"  style="overflow:visible;"/>
				</clipPath>
				
					<rect x="1020.97" y="295.69" transform="matrix(0.3671 -0.9302 0.9302 0.3671 349.9669 1161.4287)" class="st15" width="14.98" height="55.7"/>
			</g>
		</g>
		<g>
			<g>
				<defs>
					
						<rect id="SVGID_19_" x="-28.46" y="-163.54" transform="matrix(0.7642 -0.645 0.645 0.7642 -23.1363 689.6794)" width="1920.06" height="1080.03"/>
				</defs>
				<clipPath id="SVGID_20_">
					<use xlink:href="#SVGID_19_"  style="overflow:visible;"/>
				</clipPath>
				
					<rect x="692.34" y="467.38" transform="matrix(0.9392 -0.3434 0.3434 0.9392 -126.8166 278.2115)" class="st16" width="59.59" height="59.59"/>
			</g>
		</g>
		<g>
			<g>
				<defs>
					
						<rect id="SVGID_21_" x="-80.96" y="-136.16" transform="matrix(0.7642 -0.645 0.645 0.7642 -53.1801 662.2709)" width="1920.06" height="1080.03"/>
				</defs>
				<clipPath id="SVGID_22_">
					<use xlink:href="#SVGID_21_"  style="overflow:visible;"/>
				</clipPath>
				
					<rect x="703.53" y="552.85" transform="matrix(0.9392 -0.3434 0.3434 0.9392 -155.4862 287.2512)" class="st17" width="59.59" height="59.59"/>
			</g>
		</g>
		<g>
			<g>
				<defs>
					
						<rect id="SVGID_23_" x="-6" y="-111.5" transform="matrix(0.7642 -0.645 0.645 0.7642 -51.4038 716.4424)" width="1920.06" height="1080.03"/>
				</defs>
				<clipPath id="SVGID_24_">
					<use xlink:href="#SVGID_23_"  style="overflow:visible;"/>
				</clipPath>
				
					<rect x="774.72" y="462.67" transform="matrix(0.9392 -0.3434 0.3434 0.9392 -120.1896 306.2141)" class="st18" width="59.59" height="59.59"/>
			</g>
		</g>
		<g>
			<g>
				<defs>
					
						<rect id="SVGID_25_" x="-58.06" y="-82.72" transform="matrix(0.7642 -0.645 0.645 0.7642 -82.2482 689.6451)" width="1920.06" height="1080.03"/>
				</defs>
				<clipPath id="SVGID_26_">
					<use xlink:href="#SVGID_25_"  style="overflow:visible;"/>
				</clipPath>
				
					<rect x="788.05" y="548.26" transform="matrix(0.9392 -0.3434 0.3434 0.9392 -148.7704 315.9961)" class="st19" width="59.59" height="59.59"/>
			</g>
		</g>
		<g>
			<g>
				<defs>
					<rect id="SVGID_27_" width="1920" height="1080"/>
				</defs>
				<clipPath id="SVGID_28_">
					<use xlink:href="#SVGID_27_"  style="overflow:visible;"/>
				</clipPath>
				<rect x="552.56" y="258.32" class="st20 map-place" id="map-place-B15" width="55.7" height="38.1"/>
			</g>
		</g>
		<g>
			<g>
				<defs>
					<rect id="SVGID_29_" width="1920" height="1080"/>
				</defs>
				<clipPath id="SVGID_30_">
					<use xlink:href="#SVGID_29_"  style="overflow:visible;"/>
				</clipPath>
				<rect x="620.4" y="258.32" class="st21 map-place" id="map-place-B16" width="55.7" height="38.1"/>
			</g>
		</g>
		<g>
			<g>
				<defs>
					<rect id="SVGID_31_" width="1920" height="1080"/>
				</defs>
				<clipPath id="SVGID_32_">
					<use xlink:href="#SVGID_31_"  style="overflow:visible;"/>
				</clipPath>
				<rect x="695.33" y="258.32" class="st22 map-place" id="map-place-B17" width="55.7" height="38.1"/>
			</g>
		</g>
		<g>
			<g>
				<defs>
					
						<rect id="SVGID_33_" x="-543.76" y="-634.27" transform="matrix(0.1383 -0.9904 0.9904 0.1383 -325.8475 276.986)" width="1080.01" height="1920.03"/>
				</defs>
				<clipPath id="SVGID_34_">
					<use xlink:href="#SVGID_33_"  style="overflow:visible;"/>
				</clipPath>
				
					<rect x="442.84" y="458.86" transform="matrix(0.0693 -0.9976 0.9976 0.0693 -27.159 903.5894)" class="st23" width="55.7" height="14.98"/>
			</g>
		</g>
		<g>
			<g>
				<defs>
					
						<rect id="SVGID_35_" x="-524.73" y="-770.43" transform="matrix(0.1383 -0.9904 0.9904 0.1383 -174.6026 178.4968)" width="1080.01" height="1920.03"/>
				</defs>
				<clipPath id="SVGID_36_">
					<use xlink:href="#SVGID_35_"  style="overflow:visible;"/>
				</clipPath>
				
					<rect x="447.63" y="390.12" transform="matrix(0.0693 -0.9976 0.9976 0.0693 45.8741 844.386)" class="st24" width="55.7" height="14.98"/>
			</g>
		</g>
		<g>
			<g>
				<defs>
					
						<rect id="SVGID_37_" x="-504.38" y="-916.38" transform="matrix(0.1383 -0.9904 0.9904 0.1383 -12.5073 72.882)" width="1080.01" height="1920.03"/>
				</defs>
				<clipPath id="SVGID_38_">
					<use xlink:href="#SVGID_37_"  style="overflow:visible;"/>
				</clipPath>
				
					<rect x="452.74" y="316.43" transform="matrix(0.0693 -0.9976 0.9976 0.0693 124.1458 780.9085)" class="st25" width="55.7" height="14.98"/>
			</g>
		</g>
		<g>
			<g>
				<defs>
					
						<rect id="SVGID_39_" x="-473.83" y="-624.51" transform="matrix(0.1383 -0.9904 0.9904 0.1383 -275.2563 354.6473)" width="1080.01" height="1920.03"/>
				</defs>
				<clipPath id="SVGID_40_">
					<use xlink:href="#SVGID_39_"  style="overflow:visible;"/>
				</clipPath>
				
					<rect x="478.14" y="449.74" transform="matrix(0.0693 -0.9976 0.9976 0.0693 3.2557 941.0778)" class="st26 map-place" id="map-place-B12" width="55.7" height="38.1"/>
			</g>
		</g>
		<g>
			<g>
				<defs>
					
						<rect id="SVGID_41_" x="-92.41" y="-908.53" transform="matrix(0.9994 -0.036 0.036 0.9994 -1.5588 16.1422)" width="1079.88" height="1919.78"/>
				</defs>
				<clipPath id="SVGID_42_">
					<use xlink:href="#SVGID_41_"  style="overflow:visible;"/>
				</clipPath>
				
					<rect x="460.57" y="514.97" transform="matrix(0.9998 -0.018 0.018 0.9998 -9.6953 8.5134)" class="st27" width="14.98" height="55.7"/>
			</g>
		</g>
		<g>
			<g>
				<defs>
					
						<rect id="SVGID_43_" x="-55.12" y="-873.84" transform="matrix(0.9994 -0.036 0.036 0.9994 -2.7832 17.5071)" width="1079.88" height="1919.78"/>
				</defs>
				<clipPath id="SVGID_44_">
					<use xlink:href="#SVGID_43_"  style="overflow:visible;"/>
				</clipPath>
				
					<rect x="484.38" y="514.34" transform="matrix(0.9998 -0.018 0.018 0.9998 -9.6782 9.1499)" class="st28 map-place" id="map-place-B11" width="38.1" height="55.7"/>
			</g>
		</g>
		<g>
			<g>
				<defs>
					
						<rect id="SVGID_45_" x="-455.13" y="-758.58" transform="matrix(0.1383 -0.9904 0.9904 0.1383 -126.3581 257.6447)" width="1080.01" height="1920.03"/>
				</defs>
				<clipPath id="SVGID_46_">
					<use xlink:href="#SVGID_45_"  style="overflow:visible;"/>
				</clipPath>
				
					<rect x="482.84" y="382.06" transform="matrix(0.0693 -0.9976 0.9976 0.0693 75.1504 882.7784)" class="st29 map-place" id="map-place-B13" width="55.7" height="38.1"/>
			</g>
		</g>
		<g>
			<g>
				<defs>
					
						<rect id="SVGID_47_" x="-434.45" y="-906.63" transform="matrix(0.1383 -0.9904 0.9904 0.1383 38.0837 150.5435)" width="1080.01" height="1920.03"/>
				</defs>
				<clipPath id="SVGID_48_">
					<use xlink:href="#SVGID_47_"  style="overflow:visible;"/>
				</clipPath>
				
					<rect x="488.03" y="307.32" transform="matrix(0.0693 -0.9976 0.9976 0.0693 154.5414 818.3948)" class="st30 map-place" id="map-place-B14" width="55.7" height="38.1"/>
			</g>
		</g>
		<g>
			<g>
				<defs>
					
						<rect id="SVGID_49_" x="-386.27" y="-590.58" transform="matrix(0.9697 -0.2441 0.2441 0.9697 -85.5333 48.7054)" width="1079.98" height="1919.96"/>
				</defs>
				<clipPath id="SVGID_50_">
					<use xlink:href="#SVGID_49_"  style="overflow:visible;"/>
				</clipPath>
				
					<rect x="482.88" y="741.05" transform="matrix(0.9924 -0.123 0.123 0.9924 -90.8512 66.154)" class="st31" width="14.98" height="55.7"/>
			</g>
		</g>
		<g>
			<g>
				<defs>
					
						<rect id="SVGID_51_" x="-330.5" y="-683.87" transform="matrix(0.9697 -0.2441 0.2441 0.9697 -61.0705 59.4986)" width="1079.98" height="1919.96"/>
				</defs>
				<clipPath id="SVGID_52_">
					<use xlink:href="#SVGID_51_"  style="overflow:visible;"/>
				</clipPath>
				
					<rect x="474.41" y="672.67" transform="matrix(0.9924 -0.123 0.123 0.9924 -82.5048 64.5929)" class="st32" width="14.98" height="55.7"/>
			</g>
		</g>
		<g>
			<g>
				<defs>
					
						<rect id="SVGID_53_" x="-270.71" y="-783.87" transform="matrix(0.9697 -0.2441 0.2441 0.9697 -34.8472 71.0689)" width="1079.98" height="1919.96"/>
				</defs>
				<clipPath id="SVGID_54_">
					<use xlink:href="#SVGID_53_"  style="overflow:visible;"/>
				</clipPath>
				
					<rect x="465.32" y="599.37" transform="matrix(0.9924 -0.123 0.123 0.9924 -73.558 62.9183)" class="st33" width="14.98" height="55.7"/>
			</g>
		</g>
		<g>
			<g>
				<defs>
					
						<rect id="SVGID_55_" x="-338.37" y="-561.94" transform="matrix(0.9697 -0.2441 0.2441 0.9697 -91.0749 61.2667)" width="1079.98" height="1919.96"/>
				</defs>
				<clipPath id="SVGID_56_">
					<use xlink:href="#SVGID_55_"  style="overflow:visible;"/>
				</clipPath>
				
					<rect x="506.43" y="736.71" transform="matrix(0.9924 -0.123 0.123 0.9924 -90.0508 70.4396)" class="st34 map-place" id="map-place-B8" width="38.1" height="55.7"/>
			</g>
		</g>
		<g>
			<g>
				<defs>
					
						<rect id="SVGID_57_" x="-283.45" y="-653.79" transform="matrix(0.9697 -0.2441 0.2441 0.9697 -66.9884 71.8932)" width="1079.98" height="1919.96"/>
				</defs>
				<clipPath id="SVGID_58_">
					<use xlink:href="#SVGID_57_"  style="overflow:visible;"/>
				</clipPath>
				
					<rect x="498.09" y="669.38" transform="matrix(0.9924 -0.123 0.123 0.9924 -81.8325 68.9025)" class="st35 map-place" id="map-place-B9" width="38.1" height="55.7"/>
			</g>
		</g>
		<g>
			<g>
				<defs>
					
						<rect id="SVGID_59_" x="-222.81" y="-755.23" transform="matrix(0.9697 -0.2441 0.2441 0.9697 -40.3889 83.6302)" width="1079.98" height="1919.96"/>
				</defs>
				<clipPath id="SVGID_60_">
					<use xlink:href="#SVGID_59_"  style="overflow:visible;"/>
				</clipPath>
				
					<rect x="488.88" y="595.02" transform="matrix(0.9924 -0.123 0.123 0.9924 -72.7561 67.205)" class="st36 map-place" id="map-place-B10" width="38.1" height="55.7"/>
			</g>
		</g>
		<g>
			<g>
				<defs>
					
						<rect id="SVGID_61_" x="137.37" y="-320.37" transform="matrix(0.3193 -0.9476 0.9476 0.3193 538.8024 1189.3163)" width="1919.87" height="1079.92"/>
				</defs>
				<clipPath id="SVGID_62_">
					<use xlink:href="#SVGID_61_"  style="overflow:visible;"/>
				</clipPath>
				
					<rect x="786.54" y="256.34" transform="matrix(0.1618 -0.9868 0.9868 0.1618 394.7993 1033.1855)" class="st37 map-place" id="map-place-B18" width="38.1" height="55.7"/>
			</g>
		</g>
		<g>
			<g>
				<defs>
					
						<rect id="SVGID_63_" x="146.73" y="-131.32" transform="matrix(0.6829 -0.7305 0.7305 0.6829 52.372 938.0718)" width="1920.1" height="1080.06"/>
				</defs>
				<clipPath id="SVGID_64_">
					<use xlink:href="#SVGID_63_"  style="overflow:visible;"/>
				</clipPath>
				
					<rect x="863.12" y="277.46" transform="matrix(0.3671 -0.9302 0.9302 0.3671 274.3376 1013.8116)" class="st38 map-place" id="map-place-B19" width="38.1" height="55.7"/>
			</g>
		</g>
		<g>
			<g>
				<defs>
					
						<rect id="SVGID_65_" x="148.58" y="-76.49" transform="matrix(0.6829 -0.7305 0.7305 0.6829 12.9029 956.8089)" width="1920.1" height="1080.06"/>
				</defs>
				<clipPath id="SVGID_66_">
					<use xlink:href="#SVGID_65_"  style="overflow:visible;"/>
				</clipPath>
				
					<rect x="927.21" y="302.75" transform="matrix(0.3671 -0.9302 0.9302 0.3671 291.3764 1089.4365)" class="st39 map-place" id="map-place-B20" width="38.1" height="55.7"/>
			</g>
		</g>
		<g>
			<g>
				<defs>
					
						<rect id="SVGID_67_" x="150.52" y="-19.03" transform="matrix(0.6829 -0.7305 0.7305 0.6829 -28.4555 976.4438)" width="1920.1" height="1080.06"/>
				</defs>
				<clipPath id="SVGID_68_">
					<use xlink:href="#SVGID_67_"  style="overflow:visible;"/>
				</clipPath>


					<rect x="994.37" y="329.25" transform="matrix(0.3671 -0.9302 0.9302 0.3671 309.2314 1168.6824)" class="st40  map-place" id="map-place-B21" width="38.1" height="55.7"/>
			</g>
		</g>
		<g>
			<g>
				<defs>
					
						<rect id="SVGID_69_" x="181.4" y="47.51" transform="matrix(0.6829 -0.7305 0.7305 0.6829 -67.2667 1020.1007)" width="1920.1" height="1080.06"/>
				</defs>
				<clipPath id="SVGID_70_">
					<use xlink:href="#SVGID_69_"  style="overflow:visible;"/>
				</clipPath>
				
					<rect x="1098.01" y="315.77" transform="matrix(0.3671 -0.9302 0.9302 0.3671 369.6694 1252.8615)" class="st41" width="14.98" height="78.02"/>
			</g>
		</g>
		<g>
			<g>
				<defs>
					
						<rect id="SVGID_71_" x="152.11" y="46.63" transform="matrix(0.6829 -0.7305 0.7305 0.6829 -75.9141 998.429)" width="1920.1" height="1080.06"/>
				</defs>
				<clipPath id="SVGID_72_">
					<use xlink:href="#SVGID_71_"  style="overflow:visible;"/>
				</clipPath>
				
					<rect x="1070.81" y="349.08" transform="matrix(0.3671 -0.9302 0.9302 0.3671 328.7886 1259.3977)" class="st42" width="38.1" height="78.02"/>
			</g>
		</g>
		<g>
			<g>
				<defs>
					<rect id="SVGID_73_" width="1920" height="1080"/>
				</defs>
				<clipPath id="SVGID_74_">
					<use xlink:href="#SVGID_73_"  style="overflow:visible;"/>
				</clipPath>
				<rect x="552.56" y="847.18" class="st43" width="55.7" height="14.98"/>
			</g>
		</g>
		<g>
			<g>
				<defs>
					<rect id="SVGID_75_" width="1920" height="1080"/>
				</defs>
				<clipPath id="SVGID_76_">
					<use xlink:href="#SVGID_75_"  style="overflow:visible;"/>
				</clipPath>
				<rect x="621.46" y="847.18" class="st44" width="55.7" height="14.98"/>
			</g>
		</g>
		<g>
			<g>
				<defs>
					<rect id="SVGID_77_" width="1920" height="1080"/>
				</defs>
				<clipPath id="SVGID_78_">
					<use xlink:href="#SVGID_77_"  style="overflow:visible;"/>
				</clipPath>
				<rect x="695.33" y="847.18" class="st45" width="55.7" height="14.98"/>
			</g>
		</g>
		<g>
			<g>
				<defs>
					
						<rect id="SVGID_79_" x="-106.07" y="-31.3" transform="matrix(0.9476 -0.3193 0.3193 0.9476 -117.7272 299.3085)" width="1919.87" height="1079.92"/>
				</defs>
				<clipPath id="SVGID_80_">
					<use xlink:href="#SVGID_79_"  style="overflow:visible;"/>
				</clipPath>
				
					<rect x="783.48" y="840.23" transform="matrix(0.9868 -0.1618 0.1618 0.9868 -126.4739 142.4464)" class="st46" width="55.7" height="14.98"/>
			</g>
		</g>
		<g>
			<g>
				<defs>
					
						<rect id="SVGID_81_" x="-212.34" y="32.98" transform="matrix(0.7305 -0.6829 0.6829 0.7305 -189.8049 665.0651)" width="1920.1" height="1080.06"/>
				</defs>
				<clipPath id="SVGID_82_">
					<use xlink:href="#SVGID_81_"  style="overflow:visible;"/>
				</clipPath>
				
					<rect x="867.83" y="818.05" transform="matrix(0.9302 -0.3671 0.3671 0.9302 -240.5172 386.4335)" class="st47" width="55.7" height="14.98"/>
			</g>
		</g>
		<g>
			<g>
				<defs>
					
						<rect id="SVGID_83_" x="-177.79" y="69.93" transform="matrix(0.7305 -0.6829 0.6829 0.7305 -205.7281 698.6185)" width="1920.1" height="1080.06"/>
				</defs>
				<clipPath id="SVGID_84_">
					<use xlink:href="#SVGID_83_"  style="overflow:visible;"/>
				</clipPath>
				
					<rect x="931.92" y="792.76" transform="matrix(0.9302 -0.3671 0.3671 0.9302 -226.7579 408.1963)" class="st48" width="55.7" height="14.98"/>
			</g>
		</g>
		<g>
			<g>
				<defs>
					
						<rect id="SVGID_85_" x="-140.76" y="109.55" transform="matrix(0.7305 -0.6829 0.6829 0.7305 -222.8027 734.589)" width="1920.1" height="1080.06"/>
				</defs>
				<clipPath id="SVGID_86_">
					<use xlink:href="#SVGID_85_"  style="overflow:visible;"/>
				</clipPath>
				
					<rect x="1000.63" y="765.64" transform="matrix(0.9302 -0.3671 0.3671 0.9302 -212.0057 431.5253)" class="st49" width="55.7" height="14.98"/>
			</g>
		</g>
		<g>
			<g>
				<defs>
					<rect id="SVGID_87_" width="1920" height="1080"/>
				</defs>
				<clipPath id="SVGID_88_">
					<use xlink:href="#SVGID_87_"  style="overflow:visible;"/>
				</clipPath>
				<rect x="552.56" y="800.23" class="st50 map-place" id="map-place-B7" width="55.7" height="38.1"/>
			</g>
		</g>
		<g>
			<g>
				<defs>
					<rect id="SVGID_89_" width="1920" height="1080"/>
				</defs>
				<clipPath id="SVGID_90_">
					<use xlink:href="#SVGID_89_"  style="overflow:visible;"/>
				</clipPath>
				<rect x="620.4" y="800.23" class="st51 map-place" id="map-place-B6" width="55.7" height="38.1"/>
			</g>
		</g>
		<g>
			<g>
				<defs>
					<rect id="SVGID_91_" width="1920" height="1080"/>
				</defs>
				<clipPath id="SVGID_92_">
					<use xlink:href="#SVGID_91_"  style="overflow:visible;"/>
				</clipPath>
				<rect x="695.33" y="800.23" class="st52 map-place" id="map-place-B5" width="55.7" height="38.1"/>
			</g>
		</g>
		<g>
			<g>
				<defs>
					
						<rect id="SVGID_93_" x="-95.11" y="-34.99" transform="matrix(0.9476 -0.3193 0.3193 0.9476 -115.9744 302.6153)" width="1919.87" height="1079.92"/>
				</defs>
				<clipPath id="SVGID_94_">
					<use xlink:href="#SVGID_93_"  style="overflow:visible;"/>
				</clipPath>
				
					<rect x="777.7" y="793.4" transform="matrix(0.9868 -0.1618 0.1618 0.9868 -120.8434 141.0465)" class="st53 map-place" id="map-place-B4" width="55.7" height="38.1"/>
			</g>
		</g>
		<g>
			<g>
				<defs>
					
						<rect id="SVGID_95_" x="-192.63" y="14.55" transform="matrix(0.7305 -0.6829 0.6829 0.7305 -171.9066 673.5571)" width="1920.1" height="1080.06"/>
				</defs>
				<clipPath id="SVGID_96_">
					<use xlink:href="#SVGID_95_"  style="overflow:visible;"/>
				</clipPath>
				
					<rect x="854.34" y="772.32" transform="matrix(0.9302 -0.3671 0.3671 0.9302 -228.9146 379.0967)" class="st54 map-place" id="map-place-B3" width="55.7" height="38.1"/>
			</g>
		</g>
		<g>
			<g>
				<defs>
					
						<rect id="SVGID_97_" x="-158.09" y="51.5" transform="matrix(0.7305 -0.6829 0.6829 0.7305 -187.8321 707.1089)" width="1920.1" height="1080.06"/>
				</defs>
				<clipPath id="SVGID_98_">
					<use xlink:href="#SVGID_97_"  style="overflow:visible;"/>
				</clipPath>
				
					<rect x="918.43" y="747.03" transform="matrix(0.9302 -0.3671 0.3671 0.9302 -215.1563 400.8585)" class="st55 map-place" id="map-place-B2" width="55.7" height="38.1"/>
			</g>
		</g>
		<g>
			<g>
				<defs>
					
						<rect id="SVGID_99_" x="-121.88" y="90.23" transform="matrix(0.7305 -0.6829 0.6829 0.7305 -204.5197 742.2747)" width="1920.1" height="1080.06"/>
				</defs>
				<clipPath id="SVGID_100_">
					<use xlink:href="#SVGID_99_"  style="overflow:visible;"/>
				</clipPath>
				
					<rect x="985.59" y="720.52" transform="matrix(0.9302 -0.3671 0.3671 0.9302 -200.7352 423.662)" class="st56 map-place" id="map-place-B1" width="55.7" height="38.1"/>
			</g>
		</g>
		<g>
			<g>
				<defs>
					<rect id="SVGID_101_" width="1920" height="1080"/>
				</defs>
				<clipPath id="SVGID_102_">
					<use xlink:href="#SVGID_101_"  style="overflow:visible;"/>
				</clipPath>
				<g class="st57">
					<polygon class="st58" points="1816.14,531.14 1816.14,602.38 1666.65,602.38 1666.65,630.69 1589.29,566.76 1666.65,502.83 
						1666.65,531.14 					"/>
					<text transform="matrix(1 0 0 1 1670.6072 582.2574)" class="st0 st59 st60">ВХОД</text>
				</g>
			</g>
		</g>
		<g>
			<g>
				<defs>
					<rect id="SVGID_103_" width="1920" height="1080"/>
				</defs>
				<clipPath id="SVGID_104_">
					<use xlink:href="#SVGID_103_"  style="overflow:visible;"/>
				</clipPath>
				<rect x="1509.14" y="701.31" class="st61" width="399.74" height="347.3"/>
			</g>
		</g>
		<g>
			<g>
				<defs>
					<rect id="SVGID_105_" width="1920" height="1080"/>
				</defs>
				<clipPath id="SVGID_106_">
					<use xlink:href="#SVGID_105_"  style="overflow:visible;"/>
				</clipPath>
				<rect x="1574.85" y="732.55" class="st62" width="77.77" height="77.77"/>
			</g>
		</g>
		<g>
			<g>
				<defs>
					<rect id="SVGID_107_" width="1920" height="1080"/>
				</defs>
				<clipPath id="SVGID_108_">
					<use xlink:href="#SVGID_107_"  style="overflow:visible;"/>
				</clipPath>
				<g class="st63">
					<text transform="matrix(1 0 0 1 1674.4023 783.1564)" class="st59 st64">Партнер</text>
				</g>
			</g>
		</g>
		<g>
			<g>
				<defs>
					<rect id="SVGID_109_" width="1920" height="1080"/>
				</defs>
				<clipPath id="SVGID_110_">
					<use xlink:href="#SVGID_109_"  style="overflow:visible;"/>
				</clipPath>
				<rect x="1574.85" y="841.46" class="st65" width="77.77" height="77.77"/>
			</g>
		</g>
		<g>
			<g>
				<defs>
					<rect id="SVGID_111_" width="1920" height="1080"/>
				</defs>
				<clipPath id="SVGID_112_">
					<use xlink:href="#SVGID_111_"  style="overflow:visible;"/>
				</clipPath>
				<g class="st66">
					<text transform="matrix(1 0 0 1 1674.4023 892.0676)" class="st59 st64">Макеты</text>
				</g>
			</g>
		</g>
		<g>
			<g>
				<defs>
					<rect id="SVGID_113_" width="1920" height="1080"/>
				</defs>
				<clipPath id="SVGID_114_">
					<use xlink:href="#SVGID_113_"  style="overflow:visible;"/>
				</clipPath>
				<rect x="1574.85" y="944.8" class="st67" width="77.77" height="77.77"/>
			</g>
		</g>
		<g>
			<g>
				<defs>
					<rect id="SVGID_115_" width="1920" height="1080"/>
				</defs>
				<clipPath id="SVGID_116_">
					<use xlink:href="#SVGID_115_"  style="overflow:visible;"/>
				</clipPath>
				<g class="st68">
					<text transform="matrix(1 0 0 1 1674.4023 995.4074)" class="st59 st64">Регистрация</text>
				</g>
			</g>
		</g>
		<g>
			<g>
				<defs>
					<rect id="SVGID_117_" width="1920" height="1080"/>
				</defs>
				<clipPath id="SVGID_118_">
					<use xlink:href="#SVGID_117_"  style="overflow:visible;"/>
				</clipPath>
				<rect class="st69" width="1920" height="1080"/>
			</g>
		</g>
	</g>
	<g>
		<g>
			<text transform="matrix(1 0 0 1 1002.0212 747.191)" class="st70 st59 st71">B1</text>
		</g>
	</g>
	<g>
		<g>
			<text transform="matrix(1 0 0 1 932.8298 773.9995)" class="st70 st59 st71">B2</text>
		</g>
	</g>
	<g>
		<g>
			<text transform="matrix(1 0 0 1 868.4893 798.7655)" class="st70 st59 st71">B3</text>
		</g>
	</g>
	<g>
		<text transform="matrix(1 0 0 1 793.9363 818.9357)" class="st72 st59 st71">B4</text>
	</g>
	<g>
		<text transform="matrix(1 0 0 1 710.9574 826.0847)" class="st72 st59 st71">B5</text>
	</g>
	<g>
		<text transform="matrix(1 0 0 1 636.9149 826.0844)" class="st72 st59 st71">B6</text>
	</g>
	<g>
		<text transform="matrix(1 0 0 1 569 826.085)" class="st72 st59 st71">B7</text>
	</g>
	<g>
		<text transform="matrix(1 0 0 1 514.6168 770.9356)" class="st0 st59 st71">B8</text>
	</g>
	<g>
		<text transform="matrix(1 0 0 1 505.6808 703.8723)" class="st0 st59 st71">B9</text>
	</g>
	<g>
		<text transform="matrix(1 0 0 1 489.3404 631.2765)" class="st0 st59 st71">B10</text>
	</g>
	<g>
		<text transform="matrix(1 0 0 1 485.7659 549.8297)" class="st0 st59 st71">B11</text>
	</g>
	<g>
		<text transform="matrix(1 0 0 1 486.766 476.5531)" class="st0 st59 st71">B12</text>
	</g>
	<g>
		<text transform="matrix(1 0 0 1 491.7234 409.9148)" class="st0 st59 st71">B13</text>
	</g>
	<g>
		<text transform="matrix(1 0 0 1 497 334.6808)" class="st0 st59 st71">B14</text>
	</g>
	<g>
		<text transform="matrix(1 0 0 1 564.1631 284.2974)" class="st0 st59 st71">B15</text>
	</g>
	<g>
		<text transform="matrix(1 0 0 1 631.46 284.2975)" class="st0 st59 st71">B16</text>
	</g>
	<g>
		<text transform="matrix(1 0 0 1 705.5956 284.2973)" class="st73 st59 st71">B17</text>
	</g>
	<g>
		<text transform="matrix(1 0 0 1 787.5533 291.4467)" class="st73 st59 st71">B18</text>
	</g>
	<g>
		<text transform="matrix(1 0 0 1 865.84 312.8935)" class="st73 st59 st71">B19</text>
	</g>
	<g>
		<text transform="matrix(1 0 0 1 930.1064 337.8297)" class="st73 st59 st71">B20</text>
	</g>
	<g>
		<text transform="matrix(1 0 0 1 994.4468 365.4041)" class="st73 st59 st71">B21</text>
	</g>
	<g>
		<text transform="matrix(1 0 0 1 1071.7234 395.3616)" class="st0 st59 st71">h22</text>
	</g>
	<g>
		<text transform="matrix(0.9463 0.3233 -0.3233 0.9463 816.6721 215.0737)" class="st73 st59 st74">Финансовый сектор</text>
	</g>
	<g>
		<text transform="matrix(0.0388 -0.9992 0.9992 0.0388 441.4677 549.3976)" class="st75 st59 st76">Застройщики</text>
	</g>
	<g>
		<text transform="matrix(0.9996 -0.0281 0.0281 0.9996 524.6797 893.2316)" class="st72 st59 st74">Агентство недвижимости</text>
	</g>
	<g>
		<g>
			<text transform="matrix(0.9258 -0.3781 0.3781 0.9258 873.1631 877.8828)" class="st70 st59 st77">Сервис, магазины</text>
		</g>
	</g>
</g>
</svg>
